<svg version="1.1" xmlns="http://www.w3.org/2000/svg" xmlns:xlink="http://www.w3.org/1999/xlink" width="500px" height="500px" viewBox="0,0,256,256"><g fill="#ffffff" fill-rule="nonzero" stroke="none" stroke-width="0" stroke-linecap="butt" stroke-linejoin="miter" stroke-miterlimit="10" stroke-dasharray="" stroke-dashoffset="0" font-family="none" font-weight="none" font-size="none" text-anchor="none" style="mix-blend-mode: normal"><g transform="scale(0.512,0.512)"><path d="M418,430v-114.63c41.81,-14.91 72,-54.5 72,-101.37c0,-59.55 -48.45,-108 -108,-108c-2.39,0 -4.73,0.15 -7.2,0.41c-25.69,-44.88 -72.75,-72.41 -124.8,-72.41c-49,0 -101.87,28.15 -127.77,72.85c-1.32,-0.5 -2.73,-0.85 -4.23,-0.85c-59.55,0 -108,48.45 -108,108c0,46.87 30.19,86.46 72,101.37v114.63c0,19.85 16.15,36 36,36h264c19.85,0 36,-16.15 36,-36zM118,322c6.63,0 12,-5.37 12,-12c0,-6.63 -5.37,-12 -12,-12c-46.31,0 -84,-37.69 -84,-84c0,-46.31 34.36,-80.06 77.68,-83.36c-3.55,11.13 -5.68,22.9 -5.68,35.36c0,6.63 5.37,12 12,12c6.63,0 12,-5.37 12,-12c0,-61.82 63.35,-108 120,-108c40.6,0 77.49,20.18 99.62,53.46c-16.7,5.25 -32.14,14.07 -44.78,26.95c-4.64,4.73 -4.55,12.33 0.19,16.97c2.32,2.3 5.37,3.43 8.39,3.43c3.02,0 6.21,-1.21 8.58,-3.6c13.25,-13.53 30.3,-21.64 48.73,-24.11c0.07,0 0.14,0.01 0.21,0c3.66,-0.54 7.29,-1.11 11.06,-1.11c46.31,0 84,37.69 84,84c0,46.31 -37.69,84 -84,84c-6.63,0 -12,5.37 -12,12c0,6.63 5.37,12 12,12c4.11,0 8.01,-0.76 12,-1.21v25.21h-288v-25.21c3.99,0.45 7.89,1.21 12,1.21zM106,430v-60h288v60c0,6.62 -5.39,12 -12,12h-264c-6.61,0 -12,-5.38 -12,-12z"></path></g></g></svg>