<svg version="1.1" xmlns="http://www.w3.org/2000/svg" xmlns:xlink="http://www.w3.org/1999/xlink" width="100px" height="100px" viewBox="0,0,256,256"><g fill="#ffffff" fill-rule="nonzero" stroke="none" stroke-width="1" stroke-linecap="butt" stroke-linejoin="miter" stroke-miterlimit="10" stroke-dasharray="" stroke-dashoffset="0" font-family="none" font-weight="none" font-size="none" text-anchor="none" style="mix-blend-mode: normal"><g transform="scale(2.56,2.56)"><path d="M73.997,81.724c-4.944,2.051 -10.667,2.209 -15.999,0.002c-4.938,-2.047 -10.664,-2.209 -15.999,-0.002c-4.945,2.051 -10.668,2.209 -16,0.002c-4.937,-2.047 -10.667,-2.209 -15.999,-0.002l2.549,6.158c3.513,-1.452 7.386,-1.455 10.901,0.003c6.807,2.819 14.297,2.822 21.098,-0.003c3.519,-1.452 7.389,-1.455 10.901,0.003c3.401,1.41 6.976,2.113 10.547,2.113c3.577,0 7.151,-0.703 10.55,-2.116z"></path><path d="M23.45,74.552c6.807,2.818 14.297,2.822 21.098,-0.004c3.519,-1.451 7.389,-1.455 10.901,0.004c3.401,1.41 6.976,2.113 10.547,2.113c3.577,0 7.151,-0.703 10.55,-2.117c3.516,-1.451 7.383,-1.455 10.898,0.004l2.553,-6.158c-4.938,-2.049 -10.664,-2.211 -16,-0.004c-4.944,2.051 -10.667,2.211 -15.999,0.004c-4.938,-2.049 -10.664,-2.211 -15.999,-0.004c-4.945,2.051 -10.668,2.211 -16,0.004z"></path><path d="M41.999,55.056c-4.945,2.051 -10.668,2.211 -16,0.004c-4.937,-2.047 -10.667,-2.211 -15.999,-0.004l2.549,6.16c3.513,-1.453 7.386,-1.455 10.901,0.002c6.807,2.82 14.297,2.822 21.098,-0.002z"></path><path d="M90,36.667v-6.667h-10.472c-0.313,-1.211 -0.795,-2.347 -1.413,-3.398l7.409,-7.409l-4.717,-4.714l-7.409,7.406c-1.052,-0.619 -2.188,-1.097 -3.398,-1.413v-10.472h-6.667v10.472c-1.211,0.313 -2.347,0.794 -3.401,1.413l-7.405,-7.406l-4.714,4.714l7.405,7.409c-0.618,1.051 -1.1,2.188 -1.412,3.398h-10.473v6.667h10.473c0.313,1.214 0.794,2.351 1.412,3.402l-7.405,7.408l4.714,4.715l7.405,-7.41c1.055,0.622 2.19,1.101 3.401,1.416v10.469h6.667v-10.472c1.211,-0.313 2.347,-0.794 3.398,-1.413l7.409,7.41l4.717,-4.715l-7.409,-7.408c0.618,-1.055 1.101,-2.191 1.413,-3.402zM66.663,40c-3.678,0 -6.663,-2.981 -6.663,-6.666c0,-3.682 2.985,-6.667 6.663,-6.667c3.686,0 6.67,2.985 6.67,6.667c0,3.685 -2.984,6.666 -6.67,6.666z"></path></g></g></svg>