<svg version="1.1" xmlns="http://www.w3.org/2000/svg" xmlns:xlink="http://www.w3.org/1999/xlink" width="512" height="512" viewBox="0,0,256,256"><g fill="#6e7a73" fill-rule="nonzero" stroke="none" stroke-width="1" stroke-linecap="butt" stroke-linejoin="miter" stroke-miterlimit="10" stroke-dasharray="" stroke-dashoffset="0" font-family="none" font-weight="none" font-size="none" text-anchor="none" style="mix-blend-mode: normal"><g transform="translate(0.00031,-0.00005) scale(0.5,0.5)"><g><path d="M458.879,440.254c5.608,-14.463 8.126,-29.696 7.482,-45.295c-0.057,-1.363 -0.148,-2.74 -0.256,-4.118l15.76,-8.81c16.31,-9.118 23.815,-28.587 17.847,-46.294l-4.632,-13.737c-2.94,-8.721 -11.67,-14.013 -20.674,-12.717l-13.905,-37.634c-6.039,-16.332 -16.344,-30.796 -29.799,-41.829l-10.095,-8.276v-42.015c0,-4.142 -3.357,-7.5 -7.5,-7.5c-4.143,0 -7.5,3.358 -7.5,7.5v29.717l-28.44,-23.316v-70.08c0,-10.824 4.756,-21.019 13.053,-27.976l56.855,-47.724l14.86,17.697l-48.586,40.773c-4.92,4.124 -7.742,10.173 -7.742,16.599v29.32c0,4.142 3.357,7.5 7.5,7.5c4.143,0 7.5,-3.358 7.5,-7.5v-29.32c0,-1.977 0.866,-3.836 2.381,-5.105l50.502,-42.381c5.266,-4.422 5.964,-12.317 1.54,-17.617l-18.067,-21.516c-4.422,-5.27 -12.319,-5.965 -17.617,-1.543l-58.765,49.328c-11.701,9.811 -18.412,24.196 -18.412,39.467v57.783l-24.596,-20.164c-6.084,-4.986 -8.186,-13.238 -5.232,-20.536l49.61,-122.62c1.554,-3.84 -0.3,-8.212 -4.14,-9.766c-3.837,-1.552 -8.211,0.3 -9.765,4.14l-49.61,122.618c-5.432,13.416 -1.562,28.593 9.628,37.764l34.104,27.96v94.633c-0.459,-0.032 -0.916,-0.074 -1.376,-0.101c-23.162,-1.346 -45.765,4.325 -65.319,16.35c-3.263,1.962 -17.206,10.364 -17.206,10.364c-13.612,8.204 -22.068,23.179 -22.068,39.083v60.11h-93.469c-2.729,0 -5.329,-1.31 -6.957,-3.508l-13.691,-18.458h53.702c7.083,0 12.846,-5.763 12.846,-12.846v-3.033c0,-26.997 -25.922,-48.961 -57.785,-48.961c-11.838,0 -23.214,3.004 -32.898,8.687c-4.925,2.89 -10.807,4.417 -17.01,4.417h-48.025c-7.083,0 -12.846,5.763 -12.846,12.846v26.043c0,7.083 5.763,12.846 12.846,12.846h70.496l20.314,27.389c4.44,5.997 11.546,9.578 19.009,9.578h93.469v25.56h-129.21c-4.143,0 -7.5,3.358 -7.5,7.5c0,4.142 3.357,7.5 7.5,7.5h129.21v27.97h-230.647c3.483,-16.309 17.798,-27.97 34.677,-27.97h31.76c4.143,0 7.5,-3.358 7.5,-7.5c0,-4.142 -3.357,-7.5 -7.5,-7.5h-31.76c-24.849,0 -45.793,17.772 -49.802,42.261c-0.641,3.916 0.469,7.898 3.043,10.927c2.583,3.039 6.352,4.782 10.338,4.782h444.42c10.45,0 19.467,-5.981 23.53,-15.61c4.065,-9.632 2.059,-20.27 -5.238,-27.764zM55.066,354.769h45.871c8.869,0 17.376,-2.241 24.602,-6.48c7.385,-4.334 16.136,-6.624 25.307,-6.624c23.592,0 42.785,15.235 42.785,33.961v0.879h-138.565zM480.867,326.793l4.631,13.736c3.663,10.866 -0.942,22.813 -10.951,28.409l-38.14,21.32c-2.866,1.602 -6.495,0.587 -8.104,-2.293c-0.398,-0.713 -5.665,-10.135 -6.94,-12.415c-1.606,-2.872 -0.582,-6.498 2.292,-8.105l28.29,-15.814c3.635,-2.031 6.54,-5.258 8.182,-9.088l4.842,-11.3c0.344,-0.803 0.953,-1.479 1.713,-1.905l8.484,-4.743c2.174,-1.215 4.908,-0.157 5.701,2.198zM421.193,241.421c11.396,9.344 20.125,21.596 25.24,35.429l14.276,38.641l-1.349,0.754c-3.634,2.032 -6.539,5.259 -8.182,9.088l-4.485,10.469c-7.204,-10.478 -16.041,-19.518 -26.085,-26.857v-68.003zM377.169,205.328l28.44,23.316v71.066c-8.912,-4.558 -18.465,-7.935 -28.44,-9.99zM271.199,353.36c0,-10.677 5.675,-20.73 14.807,-26.233c0,0 13.939,-8.4 17.262,-10.398c16.989,-10.447 36.584,-15.354 56.659,-14.191c31.943,1.845 57.623,17.358 74.403,41.755l-17.994,10.059c-4.887,2.731 -8.416,7.202 -9.94,12.588c-1.039,3.671 -1.035,7.464 -0.078,11.057l-6.019,3.364c-7.309,-18.345 -25.237,-31.35 -46.157,-31.35c-27.391,0 -49.674,22.284 -49.674,49.674c0,4.783 0.693,9.405 1.961,13.786h-35.228v-60.111zM346.23,411.583c-2.21,1.235 -4.718,1.888 -7.251,1.888h-16.647c-1.839,-4.228 -2.866,-8.888 -2.866,-13.786c0,-19.119 15.555,-34.674 34.674,-34.674c15.306,0 28.319,9.973 32.904,23.758zM388.369,405.213c-2.656,16.501 -16.991,29.146 -34.229,29.146c-7.142,0 -13.786,-2.172 -19.309,-5.889h4.148c5.088,0 10.125,-1.312 14.568,-3.793zM477.94,490.558c-1.703,4.034 -5.333,6.442 -9.711,6.442h-197.03v-68.53h42.496c9.015,12.63 23.779,20.889 40.445,20.889c27.391,0 49.675,-22.284 49.675,-49.674c0,-1.024 -0.041,-2.039 -0.103,-3.048l9.335,-5.218l2.161,3.865c2.731,4.886 7.202,8.416 12.588,9.94c5.372,1.52 11.029,0.866 15.929,-1.873l7.726,-4.319c0.084,12.594 -2.214,24.883 -6.86,36.573c-1.974,4.956 -0.842,10.622 2.876,14.428l28.31,29.059c3.057,3.142 3.867,7.428 2.163,11.466z"></path></g></g></g></svg>