<svg version="1.1" xmlns="http://www.w3.org/2000/svg" xmlns:xlink="http://www.w3.org/1999/xlink" width="512" height="512" viewBox="0,0,256,256"><g fill="#6e7a73" fill-rule="nonzero" stroke="none" stroke-width="1" stroke-linecap="butt" stroke-linejoin="miter" stroke-miterlimit="10" stroke-dasharray="" stroke-dashoffset="0" font-family="none" font-weight="none" font-size="none" text-anchor="none" style="mix-blend-mode: normal"><g transform="translate(-0.00025,0.00026) scale(0.5,0.5)"><g><path d="M482.752,181.618h-47.59c-1.173,-11.337 -10.781,-20.208 -22.423,-20.208h-77.798c-11.642,0 -21.25,8.871 -22.423,20.208h-141.747c-4.15,0 -7.515,3.364 -7.515,7.515c0,4.15 3.365,7.515 7.515,7.515h141.626v28.436h-283.149c-7.84,0 -14.218,-6.378 -14.218,-14.218c0,-7.84 6.378,-14.218 14.218,-14.218h111.465c4.15,0 7.515,-3.365 7.515,-7.515c0,-4.15 -3.364,-7.515 -7.515,-7.515h-52.895v-61.693c0,-11.75 9.559,-21.309 21.309,-21.309c11.75,0 21.309,9.559 21.309,21.309v7.438c0,4.15 3.365,7.515 7.515,7.515c4.15,0 7.515,-3.364 7.515,-7.515v-7.438c0,-20.037 -16.302,-36.339 -36.339,-36.339c-20.037,0 -36.338,16.301 -36.338,36.339v61.693h-43.541c-16.128,0 -29.248,13.12 -29.248,29.247c0,16.127 13.12,29.247 29.248,29.247h2.637v145.432c0,19.166 14.428,35.016 32.992,37.284v21.211c0,12.431 10.113,22.544 22.544,22.544h337.159c12.431,0 22.544,-10.113 22.544,-22.544v-21.211c18.564,-2.268 32.992,-18.118 32.992,-37.284v-145.431h2.637c16.127,0 29.248,-13.12 29.248,-29.247c0,-16.127 -13.121,-29.248 -29.249,-29.248zM465.086,385.545c0,12.431 -10.113,22.544 -22.544,22.544h-203.3c-4.15,0 -7.515,3.365 -7.515,7.515c0,4.15 3.365,7.515 7.515,7.515h192.852v20.922c0,4.144 -3.371,7.515 -7.515,7.515h-337.159c-4.144,0 -7.515,-3.371 -7.515,-7.515v-20.922h129.278c4.15,0 7.515,-3.365 7.515,-7.515c0,-4.15 -3.364,-7.515 -7.515,-7.515h-139.725c-12.431,0 -22.544,-10.113 -22.544,-22.544v-145.432h265.483v67.352c0,4.15 3.364,7.515 7.515,7.515h34.409c4.15,0 7.515,-3.365 7.515,-7.515c0,-4.15 -3.365,-7.515 -7.515,-7.515h-26.894v-115.996c0,-4.144 3.371,-7.515 7.515,-7.515h77.798c4.144,0 7.515,3.371 7.515,7.515v115.996h-35.875c-4.15,0 -7.515,3.365 -7.515,7.515c0,4.15 3.365,7.515 7.515,7.515h43.39c4.15,0 7.515,-3.365 7.515,-7.515v-67.352h29.802v145.432zM482.752,225.084h-47.469v-28.436h47.469c7.84,0 14.218,6.378 14.218,14.218c0.001,7.839 -6.378,14.218 -14.218,14.218z"></path><path d="M197.09,99.443c4.643,4.514 7.463,7.559 7.463,11.774c0,7.291 -7.229,10.917 -7.471,11.037c-3.764,1.749 -5.397,6.218 -3.648,9.982c1.754,3.802 6.304,5.382 9.982,3.648c6.004,-2.79 16.166,-11.125 16.166,-24.667c0,-10.869 -6.945,-17.621 -12.016,-22.551c-1.975,-1.921 -4.214,-4.097 -4.73,-5.396c-2.627,-6.618 3.984,-10.728 5.365,-11.5c3.626,-1.967 4.991,-6.495 3.046,-10.141c-1.952,-3.662 -6.505,-5.047 -10.167,-3.094c-0.499,0.266 -4.981,2.732 -8.692,7.344c-5.453,6.776 -6.703,14.922 -3.521,22.937c1.702,4.288 5.017,7.51 8.223,10.627z"></path><path d="M326.425,99.443c4.643,4.514 7.463,7.559 7.463,11.774c0,7.291 -7.229,10.918 -7.47,11.037c-3.764,1.749 -5.397,6.218 -3.648,9.982c1.754,3.802 6.304,5.382 9.982,3.648c6.004,-2.791 16.166,-11.125 16.166,-24.667c0,-10.869 -6.945,-17.621 -12.016,-22.551c-1.975,-1.921 -4.214,-4.097 -4.73,-5.396c-2.627,-6.618 3.984,-10.728 5.365,-11.5c3.626,-1.967 4.991,-6.495 3.047,-10.141c-1.953,-3.662 -6.504,-5.047 -10.167,-3.094c-0.499,0.266 -4.981,2.732 -8.692,7.344c-5.453,6.776 -6.703,14.922 -3.521,22.937c1.701,4.288 5.016,7.51 8.221,10.627z"></path><path d="M261.758,87.209c4.643,4.514 7.463,7.559 7.463,11.775c0,7.291 -7.229,10.917 -7.47,11.036c-3.764,1.749 -5.397,6.218 -3.649,9.981c1.753,3.802 6.304,5.383 9.981,3.649c6.005,-2.79 16.167,-11.125 16.167,-24.666c0,-10.87 -6.945,-17.621 -12.016,-22.551c-1.975,-1.92 -4.214,-4.097 -4.73,-5.396c-2.629,-6.621 3.989,-10.732 5.366,-11.501c3.625,-1.967 4.989,-6.495 3.044,-10.14c-1.952,-3.662 -6.504,-5.048 -10.167,-3.094c-0.499,0.266 -4.981,2.732 -8.691,7.344c-5.453,6.776 -6.703,14.922 -3.521,22.937c1.702,4.287 5.017,7.51 8.223,10.626z"></path></g></g></g></svg>